<svg version="1.1" id="Layer_1" xmlns="http://www.w3.org/2000/svg" xmlns:xlink="http://www.w3.org/1999/xlink" x="0px" y="0px"
	 width="100%" viewBox="0 0 204 192" enable-background="new 0 0 204 192" xml:space="preserve">
<path fill="#FDFDFD" opacity="1.000000" stroke="none" 
	d="
M67.000000,193.000000 
	C45.027847,193.000000 23.055695,193.000000 1.041770,193.000000 
	C1.041770,129.108887 1.041770,65.217720 1.041770,1.000000 
	C30.020079,1.000000 59.041382,1.000000 88.405823,1.360881 
	C83.198776,3.843344 77.338593,5.398347 72.173798,8.224267 
	C65.089493,12.100443 59.544556,17.792721 56.975700,26.288731 
	C56.510624,30.118942 55.998611,33.538719 55.912731,36.969158 
	C55.849735,39.485592 55.768650,41.535915 53.165432,43.034943 
	C50.294315,44.688236 47.775787,46.953846 44.757866,48.947651 
	C42.634548,49.951065 40.857040,50.959568 39.063774,51.959648 
	C39.048016,51.951229 39.018860,51.930576 38.921124,51.608994 
	C37.177471,49.533199 35.531551,47.778992 33.943375,45.792702 
	C34.001114,45.560623 34.069935,45.087299 34.257530,44.777992 
	C34.606018,43.315819 34.766911,42.162956 34.976974,40.721954 
	C35.094578,40.050213 35.163010,39.666607 35.574387,39.175400 
	C35.917336,36.528248 35.917336,33.988701 35.917336,31.449154 
	C35.423790,31.300039 34.930244,31.150927 34.436699,31.001812 
	C33.427738,33.083897 32.418777,35.165977 31.573412,36.910469 
	C30.777563,36.299870 29.927492,35.647671 29.071514,34.972855 
	C29.065605,34.950237 29.026726,34.924274 29.077824,34.563423 
	C28.111393,33.126526 27.093863,32.050480 26.063396,30.955193 
	C26.050459,30.935949 26.005684,30.923876 25.936535,30.599464 
	C24.522205,28.853731 23.378386,28.213144 23.092201,31.316444 
	C23.044008,32.090061 23.018288,32.532246 22.739735,33.163033 
	C22.903961,34.889366 23.321020,36.427097 23.548527,38.066650 
	C23.128693,38.346767 22.941992,38.562733 22.507946,38.842354 
	C21.827726,38.892704 21.438421,38.917061 21.033369,38.968071 
	C21.017620,38.994720 21.026525,38.934189 20.874130,38.644913 
	C19.581966,37.694420 18.512121,36.736725 17.284685,36.447262 
	C15.760534,36.087822 14.106017,36.281185 12.507807,36.235783 
	C13.100184,37.520195 13.544833,38.905510 14.331468,40.057243 
	C14.965977,40.986248 16.013306,41.633293 16.951694,42.562874 
	C17.166107,42.916706 17.351141,43.051598 17.667198,43.313656 
	C17.753397,43.502319 17.782925,43.916111 17.600283,44.047199 
	C17.188482,44.388901 17.044149,44.646957 16.546944,44.971413 
	C14.980336,44.989445 13.777554,44.744392 12.743581,45.057247 
	C11.738625,45.361320 10.906741,46.237400 9.998858,46.862305 
	C11.004906,47.556408 12.010954,48.250511 13.250197,48.966942 
	C13.483394,48.989265 13.950920,49.019836 14.246584,49.183510 
	C15.869378,51.531990 17.196510,53.716801 18.769354,56.306118 
	C21.022141,55.692856 24.044268,54.870159 27.300152,54.030453 
	C27.533913,54.013439 27.997679,53.945225 28.271645,54.126762 
	C29.340830,54.880943 30.136047,55.453583 30.950356,56.026276 
	C30.969444,56.026325 30.964886,56.064236 30.882347,56.389839 
	C30.860884,57.157780 30.921961,57.600117 30.966629,58.239235 
	C30.950220,58.436020 30.879309,58.824539 30.634556,59.007061 
	C30.913179,60.146225 31.436558,61.102863 31.977327,62.295662 
	C31.994720,62.531822 32.067444,62.999805 32.016323,63.345467 
	C32.613190,65.531372 33.261173,67.371620 33.908661,69.598839 
	C33.940609,72.014420 33.370262,74.307838 34.122536,76.020218 
	C36.099106,80.519440 38.651543,84.765686 40.967411,89.472778 
	C40.055473,91.686020 39.150688,93.539192 37.676376,96.558861 
	C44.434978,101.148643 51.436256,105.903229 58.445702,110.663361 
	C57.148228,115.893723 55.252563,121.529678 54.451244,127.317146 
	C53.612125,133.377625 52.044922,139.844223 56.919563,145.627014 
	C55.832546,150.419571 54.877125,154.846573 53.676208,159.205948 
	C52.798241,162.392975 54.459999,165.053864 57.880936,165.158737 
	C60.807255,165.248444 63.742264,165.054504 66.720947,165.276855 
	C66.851578,165.745636 66.934692,165.923584 66.955017,166.467941 
	C67.891609,172.289047 68.890991,177.743729 69.911316,183.503662 
	C69.959160,184.215805 69.986053,184.622696 70.012543,185.301727 
	C70.092995,185.736282 70.173836,185.898697 70.188774,186.319336 
	C69.857498,187.025986 69.592133,187.474411 69.146149,188.235870 
	C68.960991,188.789810 68.956451,189.030716 68.850739,189.595444 
	C68.166382,190.946182 67.583191,191.973083 67.000000,193.000000 
z"/>
<path fill="#FEFEFE" opacity="1.000000" stroke="none" 
	d="
M117.000000,1.000000 
	C146.295776,1.000000 175.591537,1.000000 204.943665,1.000000 
	C204.943665,64.880432 204.943665,128.760941 204.943665,193.000000 
	C184.647171,193.000000 164.292252,193.000000 143.443878,192.637115 
	C141.048279,188.495026 139.146103,184.715805 137.372391,180.613525 
	C137.650497,175.854980 137.800156,171.419495 138.172363,166.611389 
	C142.286682,166.120834 146.178467,166.002884 150.456802,165.715057 
	C150.864166,160.719223 150.884964,155.893280 150.991165,150.704285 
	C151.095947,149.348007 151.115341,148.354813 151.511520,147.235901 
	C158.848099,146.850754 162.817001,144.670410 161.690521,140.763260 
	C159.413361,132.865112 165.052292,125.908264 163.342758,118.311401 
	C163.014542,116.852852 162.475647,115.441719 162.200943,113.687592 
	C165.351776,112.072365 168.335602,110.778259 171.265823,109.507393 
	C168.325607,102.692406 165.532410,96.406250 162.929703,90.042198 
	C162.340988,88.602684 162.586014,86.841965 162.139008,85.319611 
	C161.604523,83.499352 160.739014,81.776306 160.018143,79.727409 
	C160.062820,79.069695 160.106247,78.695724 160.589813,78.234383 
	C164.025253,78.098282 167.024536,78.129005 170.014740,77.978867 
	C173.114853,77.823212 176.282242,77.349510 176.190475,73.236397 
	C176.056290,67.220528 176.434311,61.003242 174.959335,55.294144 
	C174.304062,52.757874 172.930862,47.966179 167.972565,47.649429 
	C165.178741,46.596184 163.367035,45.466591 162.600922,42.290340 
	C158.586594,25.647224 148.049011,14.229712 132.880768,6.977799 
	C127.796638,4.547083 122.305244,2.968230 117.000000,1.000000 
z"/>
<path fill="#080706" opacity="1.000000" stroke="none" 
	d="
M116.531342,1.000000 
	C122.305244,2.968230 127.796638,4.547083 132.880768,6.977799 
	C148.049011,14.229712 158.586594,25.647224 162.600922,42.290340 
	C163.367035,45.466591 165.178741,46.596184 167.577423,47.770134 
	C164.980606,49.263237 162.363327,49.907623 160.401978,51.408920 
	C158.132965,53.145721 156.441223,55.636711 154.338120,57.539062 
	C154.049332,57.118450 153.921280,56.959042 153.825668,56.402031 
	C155.698944,44.909447 153.775269,34.714310 147.155014,24.993744 
	C141.829620,30.345465 136.941788,29.526239 132.343903,26.006035 
	C132.569504,24.972471 132.461548,23.935831 132.202682,22.580324 
	C129.803818,19.001308 127.235886,17.871502 123.696060,21.131248 
	C121.587608,22.474953 119.803139,23.742395 117.654327,25.042313 
	C113.648026,26.008577 109.965965,25.949062 108.077896,22.296976 
	C104.937859,16.223207 111.244659,14.376449 114.901619,10.149075 
	C106.000351,9.444633 98.125069,8.821386 89.101471,8.107264 
	C91.759659,11.329093 93.927383,13.105751 94.924210,15.392764 
	C96.023758,17.915455 97.067657,21.309742 96.180679,23.550451 
	C95.597832,25.022873 91.552895,25.124842 89.003822,25.565071 
	C88.256416,24.713390 87.563545,24.137167 86.733177,23.235706 
	C84.560829,20.762163 82.525970,18.613855 80.119476,16.073198 
	C77.658684,18.295248 75.362747,20.368437 72.851562,22.481880 
	C72.376938,22.852779 72.117554,23.183422 71.608566,23.635675 
	C71.254868,23.910345 71.150772,24.063400 70.755859,24.351574 
	C68.977013,25.316490 67.488968,26.146286 65.645340,26.900410 
	C63.490101,25.799232 61.690437,24.773727 59.689358,23.633448 
	C58.992207,24.241768 58.051834,25.062315 57.111465,25.882866 
	C59.544556,17.792721 65.089493,12.100443 72.173798,8.224267 
	C77.338593,5.398347 83.198776,3.843344 88.874481,1.360881 
	C98.020897,1.000000 107.041786,1.000000 116.531342,1.000000 
z"/>
<path fill="#FBFBFB" opacity="1.000000" stroke="none" 
	d="
M124.000000,193.000000 
	C111.312439,193.000000 98.624878,193.000000 85.500076,192.541840 
	C85.066307,190.121994 85.341606,188.110641 84.994774,186.212982 
	C84.665222,184.409897 83.685020,182.725723 82.988708,180.570587 
	C83.677925,175.502548 84.369354,170.853195 85.516708,166.118805 
	C97.333199,165.990662 108.693764,165.947525 120.274796,165.994858 
	C120.495255,166.085312 120.946259,166.239426 120.902161,166.619476 
	C122.099075,171.974121 123.340073,176.948685 124.239807,182.019501 
	C123.792694,183.338852 123.686852,184.561966 123.695961,184.456741 
	C128.143188,183.851669 131.860062,183.345947 135.497742,182.851013 
	C135.223480,186.355072 135.055008,188.507599 134.576721,190.766479 
	C134.054977,191.241287 133.843002,191.609741 133.485046,192.120758 
	C133.170670,192.483414 133.057663,192.728973 133.000000,193.000000 
	C132.250000,193.000000 131.500000,193.000000 130.322311,192.657196 
	C128.510315,190.433716 127.126030,188.553040 125.549858,186.411697 
	C124.917740,189.098770 124.458862,191.049377 124.000000,193.000000 
z"/>
<path fill="#E7E7E7" opacity="1.000000" stroke="none" 
	d="
M82.990913,180.989273 
	C83.685020,182.725723 84.665222,184.409897 84.994774,186.212982 
	C85.341606,188.110641 85.066307,190.121994 85.031418,192.541840 
	C81.969406,193.000000 78.938812,193.000000 75.478310,192.997772 
	C75.048401,192.995544 75.098564,192.972214 75.026001,192.502243 
	C74.314522,190.629791 73.675606,189.227295 72.771416,187.660614 
	C72.351341,187.635300 72.196541,187.774216 72.027908,187.951111 
	C72.014069,187.989090 72.083923,187.948380 72.345337,187.675842 
	C72.104263,186.902588 71.601776,186.401886 71.049744,185.950592 
	C71.000191,186.000000 71.098404,185.901413 71.067352,185.609604 
	C70.695175,185.221741 70.354065,185.125671 70.012947,185.029602 
	C69.986053,184.622696 69.959160,184.215805 70.321365,183.451141 
	C74.803947,182.392014 78.897430,181.690643 82.990913,180.989273 
z"/>
<path fill="#E7E7E7" opacity="1.000000" stroke="none" 
	d="
M134.886536,190.660126 
	C135.055008,188.507599 135.223480,186.355072 135.497742,182.851013 
	C131.860062,183.345947 128.143188,183.851669 123.695961,184.456741 
	C123.686852,184.561966 123.792694,183.338852 124.725327,182.104019 
	C129.449402,181.707077 133.346664,181.321838 137.243942,180.936615 
	C139.146103,184.715805 141.048279,188.495026 142.975220,192.637115 
	C142.555557,193.000000 142.111099,193.000000 141.251755,192.638977 
	C139.927139,190.878098 139.017441,189.478210 138.107727,188.078339 
	C137.033997,188.938950 135.960266,189.799545 134.886536,190.660126 
z"/>
<path fill="#E1C466" opacity="1.000000" stroke="none" 
	d="
M134.576736,190.766479 
	C135.960266,189.799545 137.033997,188.938950 138.107727,188.078339 
	C139.017441,189.478210 139.927139,190.878098 140.918427,192.638977 
	C138.958328,193.000000 136.916672,193.000000 134.333847,192.748672 
	C133.738815,192.324295 133.684921,192.151260 133.631042,191.978210 
	C133.843002,191.609741 134.054977,191.241287 134.576736,190.766479 
z"/>
<path fill="#E7E7E7" opacity="1.000000" stroke="none" 
	d="
M124.428452,193.000000 
	C124.458862,191.049377 124.917740,189.098770 125.549858,186.411697 
	C127.126030,188.553040 128.510315,190.433716 129.947311,192.657196 
	C128.285645,193.000000 126.571281,193.000000 124.428452,193.000000 
z"/>
<path fill="#EED06D" opacity="1.000000" stroke="none" 
	d="
M67.428467,193.000000 
	C67.583191,191.973083 68.166382,190.946182 69.171829,189.508118 
	C69.705101,188.705292 69.816116,188.313599 70.188911,187.911469 
	C70.625290,187.896423 70.799881,187.891830 71.245811,188.011871 
	C71.706078,188.073792 71.894997,188.011078 72.083923,187.948380 
	C72.083923,187.948380 72.014069,187.989090 71.999649,188.297760 
	C72.297997,188.922516 72.610756,189.238571 72.838226,189.894867 
	C72.835281,191.156738 72.917641,192.078369 73.000000,193.000000 
	C71.285645,193.000000 69.571281,193.000000 67.428467,193.000000 
z"/>
<path fill="#4D4832" opacity="1.000000" stroke="none" 
	d="
M73.250000,193.000000 
	C72.917641,192.078369 72.835281,191.156738 72.864975,189.462311 
	C72.996910,188.401276 73.016792,188.113037 73.036682,187.824814 
	C73.675606,189.227295 74.314522,190.629791 74.751839,192.515625 
	C74.366821,192.999329 74.183411,192.999664 74.000000,193.000000 
	C74.000000,193.000000 73.500000,193.000000 73.250000,193.000000 
z"/>
<path fill="#EED06D" opacity="1.000000" stroke="none" 
	d="
M74.250000,193.000000 
	C74.183411,192.999664 74.366821,192.999329 74.824402,192.985596 
	C75.098564,192.972214 75.048401,192.995544 75.024200,192.997772 
	C75.000000,193.000000 74.500000,193.000000 74.250000,193.000000 
z"/>
<path fill="#E7E7E7" opacity="1.000000" stroke="none" 
	d="
M133.485046,192.120758 
	C133.684921,192.151260 133.738815,192.324295 133.896347,192.748672 
	C134.000000,193.000000 133.500000,193.000000 133.250000,193.000000 
	C133.057663,192.728973 133.170670,192.483414 133.485046,192.120758 
z"/>
<path fill="#F5D1A8" opacity="1.000000" stroke="none" 
	d="
M56.975700,26.288729 
	C58.051834,25.062315 58.992207,24.241768 59.689358,23.633448 
	C61.690437,24.773727 63.490101,25.799232 65.643707,27.286961 
	C64.796906,30.227051 63.431000,32.641941 62.453781,35.205036 
	C61.807335,36.900578 61.718616,38.808765 61.380207,40.621754 
	C62.035954,40.743671 62.691700,40.865593 63.347446,40.987514 
	C63.934254,39.355160 64.195587,37.487659 65.171715,36.136574 
	C67.642967,32.716038 69.789902,28.069675 73.231743,26.546089 
	C80.640198,23.266615 91.784721,29.295153 94.855057,37.112789 
	C95.092865,37.718300 94.295044,38.730549 93.703217,39.419296 
	C92.087730,38.307777 90.834549,37.172256 89.392487,36.380924 
	C82.957497,32.849709 76.860977,34.079411 71.187286,38.134205 
	C66.554924,41.444794 63.851234,45.830933 64.845604,51.809345 
	C66.123276,59.491039 73.027260,64.470085 81.760788,64.065193 
	C91.026260,63.635639 97.250473,58.706944 97.367439,50.626888 
	C97.419006,47.064369 95.367775,43.471405 94.647415,39.691895 
	C97.856995,38.944279 98.673546,37.261692 96.954506,35.022778 
	C94.499878,31.825806 91.706856,28.888647 89.058357,25.840527 
	C91.552895,25.124842 95.597832,25.022873 96.180679,23.550451 
	C97.067657,21.309742 96.023758,17.915455 94.924210,15.392764 
	C93.927383,13.105751 91.759659,11.329093 89.101471,8.107264 
	C98.125069,8.821386 106.000351,9.444633 114.901619,10.149075 
	C111.244659,14.376449 104.937859,16.223207 108.077896,22.296976 
	C109.965965,25.949062 113.648026,26.008577 117.932007,25.261532 
	C122.518005,27.883261 123.456818,27.125927 124.020035,21.054989 
	C127.235886,17.871502 129.803818,19.001308 131.822632,22.613110 
	C130.564209,23.149666 129.534897,23.334568 128.505585,23.519470 
	C128.437225,23.861347 128.368851,24.203224 128.300491,24.545101 
	C129.537109,25.031055 130.773712,25.517008 132.010330,26.002960 
	C136.941788,29.526239 141.829620,30.345465 147.155014,24.993744 
	C153.775269,34.714310 155.698944,44.909447 153.577835,56.561348 
	C153.307327,57.420433 153.317093,57.722591 153.326859,58.024750 
	C153.717529,57.949924 154.108185,57.875095 154.498856,57.800270 
	C156.441223,55.636711 158.132965,53.145721 160.401978,51.408920 
	C162.363327,49.907623 164.980606,49.263237 167.703064,48.119350 
	C172.930862,47.966179 174.304062,52.757874 174.959335,55.294144 
	C176.434311,61.003242 176.056290,67.220528 176.190475,73.236397 
	C176.282242,77.349510 173.114853,77.823212 170.014740,77.978867 
	C167.024536,78.129005 164.025253,78.098282 160.471954,77.929535 
	C153.311020,74.223274 147.985123,74.906013 141.486206,79.983948 
	C134.993698,81.953468 128.935562,84.101250 122.785950,85.943764 
	C109.974670,89.782173 97.115005,93.459076 83.875076,97.192871 
	C72.610954,96.610916 61.557354,98.094101 50.649258,94.098473 
	C47.189930,92.376976 44.082245,90.744843 40.974564,89.112717 
	C38.651543,84.765686 36.099106,80.519440 34.122536,76.020218 
	C33.370262,74.307838 33.940609,72.014420 34.111542,69.275085 
	C37.113525,62.247746 39.682487,55.801804 44.830532,50.864468 
	C45.196301,50.513672 45.025158,49.603046 45.103672,48.952736 
	C47.775787,46.953846 50.294315,44.688236 53.165432,43.034943 
	C55.768650,41.535915 55.849735,39.485592 55.912731,36.969158 
	C55.998611,33.538719 56.510624,30.118942 56.975700,26.288729 
M104.764687,53.884987 
	C106.092979,60.926258 111.449203,62.937801 117.492516,63.767818 
	C123.994278,64.660805 130.234573,64.268074 134.444107,58.109913 
	C134.908340,57.430820 135.234497,56.638992 135.524490,55.862049 
	C137.979630,49.284260 136.072357,43.780025 131.245163,39.077702 
	C126.562233,34.515907 121.604332,34.000290 115.146690,36.491165 
	C107.357613,39.495605 105.283760,45.782352 104.764687,53.884987 
z"/>
<path fill="#FB0000" opacity="1.000000" stroke="none" 
	d="
M40.967407,89.472778 
	C44.082245,90.744843 47.189930,92.376976 50.802181,94.417740 
	C61.945946,100.478928 73.092964,99.085159 84.275223,97.202347 
	C97.115005,93.459076 109.974670,89.782173 122.785950,85.943764 
	C128.935562,84.101250 134.993698,81.953468 141.707581,80.347961 
	C148.220215,80.505035 154.118546,80.258095 160.016876,80.011154 
	C160.739014,81.776306 161.604523,83.499352 162.139008,85.319611 
	C162.586014,86.841965 162.340988,88.602684 162.929703,90.042198 
	C165.532410,96.406250 168.325607,102.692406 171.265823,109.507393 
	C168.335602,110.778259 165.351776,112.072365 161.801208,113.734924 
	C158.509476,114.773834 155.784500,115.444298 152.662598,116.014786 
	C150.284271,116.329224 148.302856,116.743645 146.321442,117.158066 
	C146.854797,117.405716 147.388168,117.653358 147.921524,117.901009 
	C147.921524,124.427185 147.921524,130.953369 147.958496,137.571869 
	C147.995483,137.664185 147.907349,137.842468 147.646851,137.966248 
	C147.006271,138.697662 146.626175,139.305298 146.164856,139.993622 
	C146.083649,140.074295 145.942947,140.254898 145.508545,140.157043 
	C136.821213,138.423401 128.777359,138.806534 121.332069,143.089569 
	C117.226280,145.451492 113.731430,144.334167 110.114647,142.104340 
	C106.648170,139.967178 103.069084,139.589569 99.025536,140.950790 
	C92.871010,143.022629 86.505180,145.715363 80.467453,140.333344 
	C79.984612,139.902924 78.822906,139.982697 78.055428,140.162155 
	C71.009018,141.809860 63.980015,143.532028 56.945934,145.232468 
	C52.044922,139.844223 53.612125,133.377625 54.451244,127.317146 
	C55.252563,121.529678 57.148228,115.893723 58.445702,110.663361 
	C51.436256,105.903229 44.434978,101.148643 37.676376,96.558861 
	C39.150688,93.539192 40.055473,91.686020 40.967407,89.472778 
z"/>
<path fill="#FBF495" opacity="1.000000" stroke="none" 
	d="
M56.919563,145.627014 
	C63.980015,143.532028 71.009018,141.809860 78.055428,140.162155 
	C78.822906,139.982697 79.984612,139.902924 80.467453,140.333344 
	C86.505180,145.715363 92.871010,143.022629 99.025536,140.950790 
	C103.069084,139.589569 106.648170,139.967178 110.114647,142.104340 
	C113.731430,144.334167 117.226280,145.451492 121.332069,143.089569 
	C128.777359,138.806534 136.821213,138.423401 145.555756,140.496887 
	C147.736496,143.076935 149.435608,145.219269 151.134735,147.361603 
	C151.115341,148.354813 151.095947,149.348007 150.634155,150.831421 
	C149.798737,155.597855 149.405746,159.874069 148.560944,164.291061 
	C138.831970,164.474060 129.554794,164.516281 119.821632,164.379898 
	C114.100754,163.111267 108.095917,166.299774 104.314377,162.329498 
	C101.137215,163.070480 98.743416,164.052826 96.326843,164.112488 
	C89.224960,164.287827 82.114037,164.096786 74.594986,164.030930 
	C71.680023,164.337112 69.176727,164.661575 66.673431,164.986023 
	C63.742264,165.054504 60.807255,165.248444 57.880936,165.158737 
	C54.459999,165.053864 52.798241,162.392975 53.676208,159.205948 
	C54.877125,154.846573 55.832546,150.419571 56.919563,145.627014 
z"/>
<path fill="#F5D1A8" opacity="1.000000" stroke="none" 
	d="
M35.231438,39.283001 
	C35.163010,39.666607 35.094578,40.050213 34.638664,40.780975 
	C34.190762,42.447853 34.130348,43.767574 34.069935,45.087299 
	C34.069935,45.087299 34.001114,45.560623 33.632069,45.841595 
	C32.993679,48.219284 34.829792,50.072044 39.018860,51.930576 
	C39.018860,51.930576 39.048016,51.951229 38.986828,52.319992 
	C36.639576,56.125774 34.353508,59.562790 32.067444,62.999805 
	C32.067444,62.999805 31.994720,62.531822 32.250134,62.089684 
	C31.963469,60.706543 31.421389,59.765541 30.879309,58.824539 
	C30.879309,58.824539 30.950220,58.436020 31.205826,58.095409 
	C31.295916,57.191277 31.130402,56.627758 30.964886,56.064236 
	C30.964886,56.064236 30.969444,56.026325 30.886806,55.759811 
	C30.468395,54.517124 30.132622,53.540951 29.796846,52.564777 
	C29.197124,53.024925 28.597401,53.485077 27.997679,53.945225 
	C27.997679,53.945225 27.533913,54.013439 27.049898,53.741348 
	C24.329636,53.469257 22.093388,53.469257 19.810602,53.469257 
	C20.873796,48.517673 16.719624,49.032837 14.273997,47.684971 
	C15.300045,46.600227 16.142342,45.776340 16.984638,44.952457 
	C17.044149,44.646957 17.188482,44.388901 17.905678,44.194939 
	C19.334526,44.722385 20.275341,45.233185 21.216154,45.743980 
	C21.399950,45.298267 21.583746,44.852554 21.767544,44.406841 
	C20.372028,43.979557 18.976515,43.552277 17.581001,43.124992 
	C17.351141,43.051598 17.166107,42.916706 16.994968,42.206390 
	C16.574001,40.658184 16.183968,39.623901 15.793936,38.582760 
	C17.538132,38.695332 19.282330,38.814762 21.026525,38.934189 
	C21.026525,38.934189 21.017620,38.994720 21.158403,39.283585 
	C22.344999,39.862179 23.390814,40.151909 24.436628,40.441635 
	C23.890707,39.899879 23.344786,39.358124 22.798864,38.816368 
	C22.941992,38.562733 23.128693,38.346767 23.887506,37.895977 
	C23.941551,36.073799 23.467060,34.524113 22.992569,32.974430 
	C23.018288,32.532246 23.044008,32.090061 23.452618,31.320805 
	C24.558901,30.970446 25.282293,30.947161 26.005684,30.923876 
	C26.005684,30.923876 26.050459,30.935949 26.045498,31.307457 
	C27.035933,32.760735 28.031330,33.842506 29.026726,34.924274 
	C29.026726,34.924274 29.065605,34.950237 29.055073,35.324497 
	C29.330339,39.959988 32.547924,39.160553 35.231438,39.283001 
z"/>
<path fill="#F3CFA7" opacity="1.000000" stroke="none" 
	d="
M82.988708,180.570587 
	C78.897430,181.690643 74.803947,182.392014 70.300415,183.145905 
	C68.890991,177.743729 67.891609,172.289047 67.397537,166.465851 
	C70.272827,166.030792 72.642792,165.964218 75.465111,165.951080 
	C78.965233,166.070969 82.013000,166.137390 85.060776,166.203827 
	C84.369354,170.853195 83.677925,175.502548 82.988708,180.570587 
z"/>
<path fill="#E9C6A0" opacity="1.000000" stroke="none" 
	d="
M32.016323,63.345467 
	C34.353508,59.562790 36.639576,56.125774 39.002586,52.328415 
	C40.857040,50.959568 42.634548,49.951065 44.757866,48.947651 
	C45.025158,49.603046 45.196301,50.513672 44.830532,50.864468 
	C39.682487,55.801804 37.113525,62.247746 34.112038,68.888115 
	C33.261173,67.371620 32.613190,65.531372 32.016323,63.345467 
z"/>
<path fill="#E9C6A0" opacity="1.000000" stroke="none" 
	d="
M14.090245,47.945827 
	C16.719624,49.032837 20.873796,48.517673 19.810602,53.469257 
	C22.093388,53.469257 24.329636,53.469257 26.816139,53.758362 
	C24.044268,54.870159 21.022141,55.692856 18.769354,56.306118 
	C17.196510,53.716801 15.869378,51.531990 14.241661,48.949684 
	C13.941076,48.552185 13.934565,48.084465 13.971117,48.047146 
	C14.007668,48.009827 14.090245,47.945827 14.090245,47.945827 
z"/>
<path fill="#E9C6A0" opacity="1.000000" stroke="none" 
	d="
M35.574387,39.175400 
	C32.547924,39.160553 29.330339,39.959988 29.060980,35.347115 
	C29.927492,35.647671 30.777563,36.299870 31.573412,36.910469 
	C32.418777,35.165977 33.427738,33.083897 34.436699,31.001812 
	C34.930244,31.150927 35.423790,31.300039 35.917336,31.449154 
	C35.917336,33.988701 35.917336,36.528248 35.574387,39.175400 
z"/>
<path fill="#E9C6A0" opacity="1.000000" stroke="none" 
	d="
M20.874130,38.644913 
	C19.282330,38.814762 17.538132,38.695332 15.793936,38.582760 
	C16.183968,39.623901 16.574001,40.658184 16.920761,42.048950 
	C16.013306,41.633293 14.965977,40.986248 14.331468,40.057243 
	C13.544833,38.905510 13.100184,37.520195 12.507807,36.235783 
	C14.106017,36.281185 15.760534,36.087822 17.284685,36.447262 
	C18.512121,36.736725 19.581966,37.694420 20.874130,38.644913 
z"/>
<path fill="#E9C6A0" opacity="1.000000" stroke="none" 
	d="
M16.546944,44.971413 
	C16.142342,45.776340 15.300045,46.600227 14.273997,47.684971 
	C14.090245,47.945827 14.007668,48.009827 13.767836,48.125992 
	C13.284372,48.422947 13.114039,48.657101 13.017002,48.944618 
	C12.010954,48.250511 11.004906,47.556408 9.998858,46.862305 
	C10.906741,46.237400 11.738625,45.361320 12.743581,45.057247 
	C13.777554,44.744392 14.980336,44.989445 16.546944,44.971413 
z"/>
<path fill="#E9C6A0" opacity="1.000000" stroke="none" 
	d="
M38.921124,51.608994 
	C34.829792,50.072044 32.993679,48.219284 33.574329,46.073673 
	C35.531551,47.778992 37.177471,49.533199 38.921124,51.608994 
z"/>
<path fill="#847D4F" opacity="1.000000" stroke="none" 
	d="
M75.012756,165.897644 
	C72.642792,165.964218 70.272827,166.030792 67.460327,166.099457 
	C66.934692,165.923584 66.851578,165.745636 66.720947,165.276871 
	C69.176727,164.661575 71.680023,164.337112 74.586411,164.338989 
	C74.997253,165.076096 75.005005,165.486877 75.012756,165.897644 
z"/>
<path fill="#E9C6A0" opacity="1.000000" stroke="none" 
	d="
M22.739735,33.163033 
	C23.467060,34.524113 23.941551,36.073799 24.077061,37.794159 
	C23.321020,36.427097 22.903961,34.889366 22.739735,33.163033 
z"/>
<path fill="#E9C6A0" opacity="1.000000" stroke="none" 
	d="
M29.077824,34.563423 
	C28.031330,33.842506 27.035933,32.760735 26.058434,31.326702 
	C27.093863,32.050480 28.111393,33.126526 29.077824,34.563423 
z"/>
<path fill="#E9C6A0" opacity="1.000000" stroke="none" 
	d="
M28.271645,54.126762 
	C28.597401,53.485077 29.197124,53.024925 29.796846,52.564777 
	C30.132622,53.540951 30.468395,54.517124 30.867718,55.759758 
	C30.136047,55.453583 29.340830,54.880943 28.271645,54.126762 
z"/>
<path fill="#E9C6A0" opacity="1.000000" stroke="none" 
	d="
M17.667198,43.313656 
	C18.976515,43.552277 20.372028,43.979557 21.767544,44.406841 
	C21.583746,44.852554 21.399950,45.298267 21.216154,45.743980 
	C20.275341,45.233185 19.334526,44.722385 18.088318,44.063850 
	C17.782925,43.916111 17.753397,43.502319 17.667198,43.313656 
z"/>
<path fill="#E9C6A0" opacity="1.000000" stroke="none" 
	d="
M34.257530,44.777992 
	C34.130348,43.767574 34.190762,42.447853 34.589489,41.069107 
	C34.766911,42.162956 34.606018,43.315819 34.257530,44.777992 
z"/>
<path fill="#E9C6A0" opacity="1.000000" stroke="none" 
	d="
M22.507946,38.842354 
	C23.344786,39.358124 23.890707,39.899879 24.436628,40.441635 
	C23.390814,40.151909 22.344999,39.862179 21.174152,39.256935 
	C21.438421,38.917061 21.827726,38.892704 22.507946,38.842354 
z"/>
<path fill="#E9C6A0" opacity="1.000000" stroke="none" 
	d="
M30.634556,59.007061 
	C31.421389,59.765541 31.963469,60.706543 32.232742,61.853523 
	C31.436558,61.102863 30.913179,60.146225 30.634556,59.007061 
z"/>
<path fill="#E9C6A0" opacity="1.000000" stroke="none" 
	d="
M25.936535,30.599464 
	C25.282293,30.947161 24.558901,30.970446 23.475094,30.989368 
	C23.378386,28.213144 24.522205,28.853731 25.936535,30.599464 
z"/>
<path fill="#000000" opacity="1.000000" stroke="none" 
	d="
M70.974472,187.887253 
	C70.799881,187.891830 70.625290,187.896423 70.038940,187.812195 
	C69.627190,187.723343 69.326767,187.922821 69.326767,187.922821 
	C69.592133,187.474411 69.857498,187.025986 70.410629,186.337097 
	C70.698387,186.096634 71.098404,185.901413 71.098404,185.901413 
	C71.098404,185.901413 71.000191,186.000000 70.962006,186.274063 
	C70.940697,186.994507 70.957581,187.440872 70.974472,187.887253 
z"/>
<path fill="#E9C6A0" opacity="1.000000" stroke="none" 
	d="
M30.882347,56.389839 
	C31.130402,56.627758 31.295916,57.191277 31.222235,57.898628 
	C30.921961,57.600117 30.860884,57.157780 30.882347,56.389839 
z"/>
<path fill="#393931" opacity="1.000000" stroke="none" 
	d="
M69.146149,188.235870 
	C69.326767,187.922821 69.627190,187.723343 69.777161,187.822632 
	C69.816116,188.313599 69.705101,188.705292 69.272995,189.184296 
	C68.956451,189.030716 68.960991,188.789810 69.146149,188.235870 
z"/>
<path fill="#393931" opacity="1.000000" stroke="none" 
	d="
M71.067352,185.609604 
	C71.098404,185.901413 70.698387,186.096634 70.476532,186.078873 
	C70.173836,185.898697 70.092995,185.736282 70.012543,185.301727 
	C70.354065,185.125671 70.695175,185.221741 71.067352,185.609604 
z"/>
<path fill="#F5D1A8" opacity="1.000000" stroke="none" 
	d="
M13.250198,48.966942 
	C13.114039,48.657101 13.284372,48.422947 13.731284,48.163307 
	C13.934565,48.084465 13.941076,48.552185 13.945998,48.786011 
	C13.950920,49.019836 13.483394,48.989265 13.250198,48.966942 
z"/>
<path fill="#EAC7A1" opacity="1.000000" stroke="none" 
	d="
M151.511505,147.235901 
	C149.435608,145.219269 147.736496,143.076935 145.990158,140.594757 
	C145.942947,140.254898 146.083649,140.074295 146.421448,139.884094 
	C147.141953,139.076767 147.524658,138.459625 147.907349,137.842468 
	C147.907349,137.842468 147.995483,137.664185 148.285950,137.377411 
	C149.695999,136.570770 150.815598,136.050903 151.879913,135.556717 
	C151.276382,131.211868 150.762238,127.069069 150.107925,122.948532 
	C149.638062,119.989700 150.375488,117.659088 153.059509,116.114761 
	C155.784500,115.444298 158.509476,114.773834 161.634186,114.056038 
	C162.475647,115.441719 163.014542,116.852852 163.342758,118.311401 
	C165.052292,125.908264 159.413361,132.865112 161.690521,140.763260 
	C162.817001,144.670410 158.848099,146.850754 151.511505,147.235901 
z"/>
<path fill="#F0CCA5" opacity="1.000000" stroke="none" 
	d="
M137.372391,180.613541 
	C133.346664,181.321838 129.449402,181.707077 125.066597,182.007782 
	C123.340073,176.948685 122.099075,171.974121 121.363899,166.526306 
	C127.229759,166.363388 132.589783,166.673691 137.949814,166.984009 
	C137.800156,171.419495 137.650497,175.854980 137.372391,180.613541 
z"/>
<path fill="#E0E0E0" opacity="1.000000" stroke="none" 
	d="
M160.018143,79.727409 
	C154.118546,80.258095 148.220215,80.505035 142.100510,80.387970 
	C147.985123,74.906013 153.311020,74.223274 160.031799,78.016907 
	C160.106247,78.695724 160.062820,79.069695 160.018143,79.727409 
z"/>
<path fill="#191615" opacity="1.000000" stroke="none" 
	d="
M138.172363,166.611389 
	C132.589783,166.673691 127.229759,166.363388 121.407990,166.146240 
	C120.946259,166.239426 120.495255,166.085312 120.307663,165.767883 
	C120.273476,165.170990 120.325989,164.873672 120.277618,164.558502 
	C129.554794,164.516281 138.831970,164.474060 148.713730,164.504044 
	C149.568954,165.012482 149.819611,165.448715 150.070251,165.884949 
	C146.178467,166.002884 142.286682,166.120834 138.172363,166.611389 
z"/>
<path fill="#7C7947" opacity="1.000000" stroke="none" 
	d="
M150.456802,165.715057 
	C149.819611,165.448715 149.568954,165.012482 149.165527,164.363266 
	C149.405746,159.874069 149.798737,155.597855 150.548767,151.194489 
	C150.884964,155.893280 150.864166,160.719223 150.456802,165.715057 
z"/>
<path fill="#EBCAA3" opacity="1.000000" stroke="none" 
	d="
M89.003822,25.565069 
	C91.706856,28.888647 94.499878,31.825806 96.954506,35.022778 
	C98.673546,37.261692 97.856995,38.944279 94.661911,39.531487 
	C94.300209,39.571442 93.978569,39.553749 93.978569,39.553749 
	C94.295044,38.730549 95.092865,37.718300 94.855057,37.112789 
	C91.784721,29.295153 80.640198,23.266615 73.231743,26.546089 
	C69.789902,28.069675 67.642967,32.716038 65.171715,36.136574 
	C64.195587,37.487659 63.934254,39.355160 63.347446,40.987514 
	C62.691700,40.865593 62.035954,40.743671 61.380207,40.621754 
	C61.718616,38.808765 61.807335,36.900578 62.453781,35.205036 
	C63.431000,32.641941 64.796906,30.227051 65.999283,27.362633 
	C67.488968,26.146286 68.977013,25.316490 70.922821,24.457893 
	C71.539780,24.124083 71.698975,23.819075 71.858170,23.514065 
	C72.117554,23.183422 72.376938,22.852779 73.338974,22.656212 
	C78.388763,21.868774 82.415169,26.286369 86.870667,23.560944 
	C87.563545,24.137167 88.256416,24.713390 89.003822,25.565069 
z"/>
<path fill="#F5D1A8" opacity="1.000000" stroke="none" 
	d="
M86.733177,23.235706 
	C82.415169,26.286369 78.388763,21.868774 73.554214,22.615955 
	C75.362747,20.368437 77.658684,18.295248 80.119476,16.073198 
	C82.525970,18.613855 84.560829,20.762163 86.733177,23.235706 
z"/>
<path fill="#E5C59F" opacity="1.000000" stroke="none" 
	d="
M123.696060,21.131248 
	C123.456818,27.125927 122.518005,27.883261 118.296341,25.229059 
	C119.803139,23.742395 121.587608,22.474953 123.696060,21.131248 
z"/>
<path fill="#E5C59F" opacity="1.000000" stroke="none" 
	d="
M132.343903,26.006035 
	C130.773712,25.517008 129.537109,25.031055 128.300491,24.545101 
	C128.368851,24.203224 128.437225,23.861347 128.505585,23.519470 
	C129.534897,23.334568 130.564209,23.149666 131.973572,22.931978 
	C132.461548,23.935831 132.569504,24.972471 132.343903,26.006035 
z"/>
<path fill="#F5D1A8" opacity="1.000000" stroke="none" 
	d="
M71.608566,23.635677 
	C71.698975,23.819075 71.539780,24.124083 71.213623,24.322773 
	C71.150772,24.063400 71.254868,23.910345 71.608566,23.635677 
z"/>
<path fill="#7C7947" opacity="1.000000" stroke="none" 
	d="
M119.821632,164.379913 
	C120.325989,164.873672 120.273476,165.170990 120.087204,165.677429 
	C108.693764,165.947525 97.333199,165.990662 85.516708,166.118805 
	C82.013000,166.137390 78.965233,166.070969 75.465103,165.951080 
	C75.005005,165.486877 74.997253,165.076096 74.998077,164.357269 
	C82.114037,164.096786 89.224960,164.287827 96.326843,164.112488 
	C98.743416,164.052826 101.137215,163.070480 104.314377,162.329498 
	C108.095917,166.299774 114.100754,163.111267 119.821632,164.379913 
z"/>
<path fill="#393931" opacity="1.000000" stroke="none" 
	d="
M71.245804,188.011871 
	C70.957581,187.440872 70.940697,186.994507 71.011551,186.224640 
	C71.601776,186.401886 72.104263,186.902588 72.345337,187.675842 
	C71.894997,188.011078 71.706078,188.073792 71.245804,188.011871 
z"/>
<path fill="#393931" opacity="1.000000" stroke="none" 
	d="
M72.771416,187.660614 
	C73.016792,188.113037 72.996910,188.401276 72.950272,189.122070 
	C72.610756,189.238571 72.297997,188.922516 72.013489,188.259781 
	C72.196541,187.774216 72.351341,187.635300 72.771416,187.660614 
z"/>
<path fill="#080706" opacity="1.000000" stroke="none" 
	d="
M94.285721,39.731850 
	C95.367775,43.471405 97.419006,47.064369 97.367439,50.626888 
	C97.250473,58.706944 91.026260,63.635639 81.760788,64.065193 
	C73.027260,64.470085 66.123276,59.491039 64.845604,51.809345 
	C63.851234,45.830933 66.554924,41.444794 71.187286,38.134205 
	C76.860977,34.079411 82.957497,32.849709 89.392487,36.380924 
	C90.834549,37.172256 92.087730,38.307777 93.703217,39.419296 
	C93.978569,39.553749 94.300209,39.571442 94.285721,39.731850 
M85.506210,53.525993 
	C88.274315,51.330101 90.027657,48.293591 87.168045,45.665550 
	C85.714264,44.329491 81.831749,44.322506 79.838524,45.310783 
	C78.297623,46.074787 76.924644,49.566639 77.350487,51.413860 
	C78.254135,55.333622 81.829147,54.281895 85.506210,53.525993 
z"/>
<path fill="#090807" opacity="1.000000" stroke="none" 
	d="
M104.708076,53.508675 
	C105.283760,45.782352 107.357613,39.495605 115.146690,36.491165 
	C121.604332,34.000290 126.562233,34.515907 131.245163,39.077702 
	C136.072357,43.780025 137.979630,49.284260 135.524490,55.862049 
	C135.234497,56.638992 134.908340,57.430820 134.444107,58.109913 
	C130.234573,64.268074 123.994278,64.660805 117.492516,63.767818 
	C111.449203,62.937801 106.092979,60.926258 104.708076,53.508675 
M123.149834,52.840473 
	C123.466789,50.444447 124.853874,47.194511 123.809044,45.885128 
	C122.695259,44.489319 118.788414,43.945789 117.009933,44.839340 
	C115.187996,45.754730 114.466995,48.861362 113.264122,51.008896 
	C115.227882,52.073467 117.113647,53.355907 119.192131,54.099987 
	C120.076752,54.416672 121.364632,53.606945 123.149834,52.840473 
z"/>
<path fill="#120605" opacity="1.000000" stroke="none" 
	d="
M83.875076,97.192871 
	C73.092964,99.085159 61.945946,100.478928 51.153824,94.507095 
	C61.557354,98.094101 72.610954,96.610916 83.875076,97.192871 
z"/>
<path fill="#080706" opacity="1.000000" stroke="none" 
	d="
M154.338120,57.539062 
	C154.108185,57.875095 153.717529,57.949924 153.326859,58.024750 
	C153.317093,57.722591 153.307327,57.420433 153.545395,56.958954 
	C153.921280,56.959042 154.049332,57.118450 154.338120,57.539062 
z"/>
<path fill="#390B0A" opacity="1.000000" stroke="none" 
	d="
M152.662598,116.014778 
	C150.375488,117.659088 149.638062,119.989700 150.107925,122.948532 
	C150.762238,127.069069 151.276382,131.211868 151.879913,135.556717 
	C150.815598,136.050903 149.695999,136.570770 148.248962,137.285095 
	C147.921524,130.953369 147.921524,124.427185 147.921524,117.901009 
	C147.388168,117.653358 146.854797,117.405716 146.321442,117.158066 
	C148.302856,116.743645 150.284271,116.329224 152.662598,116.014778 
z"/>
<path fill="#390B0A" opacity="1.000000" stroke="none" 
	d="
M147.646851,137.966248 
	C147.524658,138.459625 147.141953,139.076767 146.502655,139.803421 
	C146.626175,139.305298 147.006271,138.697662 147.646851,137.966248 
z"/>
<path fill="#F2F2F2" opacity="1.000000" stroke="none" 
	d="
M85.131180,53.673691 
	C81.829147,54.281895 78.254135,55.333622 77.350487,51.413860 
	C76.924644,49.566639 78.297623,46.074787 79.838524,45.310783 
	C81.831749,44.322506 85.714264,44.329491 87.168045,45.665550 
	C90.027657,48.293591 88.274315,51.330101 85.131180,53.673691 
z"/>
<path fill="#EFEFEF" opacity="1.000000" stroke="none" 
	d="
M122.809540,53.074791 
	C121.364632,53.606945 120.076752,54.416672 119.192131,54.099987 
	C117.113647,53.355907 115.227882,52.073467 113.264122,51.008896 
	C114.466995,48.861362 115.187996,45.754730 117.009933,44.839340 
	C118.788414,43.945789 122.695259,44.489319 123.809044,45.885128 
	C124.853874,47.194511 123.466789,50.444447 122.809540,53.074791 
z"/>
</svg>